<?xml version="1.0" standalone="no"?>
<!DOCTYPE svg PUBLIC "-//W3C//DTD SVG 20010904//EN"
 "http://www.w3.org/TR/2001/REC-SVG-20010904/DTD/svg10.dtd">
<svg version="1.0" xmlns="http://www.w3.org/2000/svg"
 width="300.000000pt" height="545.000000pt" viewBox="0 0 300.000000 545.000000"
 preserveAspectRatio="xMidYMid meet">
<metadata>
Created by potrace 1.10, written by Peter Selinger 2001-2011
</metadata>
<g transform="translate(0.000000,545.000000) scale(0.100000,-0.100000)"
fill="#000000" stroke="none">
<path d="M2352 5186 c-29 -30 -31 -36 -17 -43 14 -9 14 -12 -4 -34 -14 -17
-21 -20 -21 -9 0 8 -11 -7 -24 -35 -13 -27 -25 -44 -27 -37 -4 12 -69 36 -69
25 0 -3 8 -17 18 -31 10 -15 28 -55 41 -89 l22 -62 -26 -51 c-15 -29 -25 -61
-24 -73 6 -52 -31 -95 -71 -82 -10 3 -22 15 -25 26 -10 31 -22 22 -19 -16 1
-19 -2 -38 -8 -41 -13 -8 -16 -4 -22 31 -13 70 -18 85 -32 85 -8 0 -14 -4 -14
-10 0 -5 -6 -10 -14 -10 -8 0 -16 -6 -19 -12 -6 -19 23 -58 44 -58 10 0 21 -5
25 -12 4 -6 3 -8 -2 -5 -6 3 -10 -6 -11 -21 -2 -85 -4 -92 -17 -92 -8 0 -20
17 -27 37 -21 66 -59 86 -94 50 -26 -28 -28 -122 -3 -141 12 -9 14 -16 7 -23
-8 -8 -4 -15 11 -26 15 -11 18 -16 8 -20 -9 -4 -9 -6 -1 -6 9 -1 10 -8 3 -27
-12 -32 -13 -47 -1 -40 5 4 12 25 16 49 7 45 24 87 36 87 3 0 9 -10 12 -22 4
-12 9 -19 13 -16 3 4 19 -6 36 -20 30 -27 119 -55 144 -45 8 3 20 0 27 -6 10
-8 19 -6 35 9 13 13 27 17 39 13 25 -10 133 -125 127 -135 -3 -5 -1 -14 4 -21
16 -19 41 -97 31 -97 -5 0 -9 -22 -9 -50 0 -38 -4 -50 -15 -50 -8 0 -15 -9
-15 -19 0 -13 -9 -21 -30 -26 -16 -4 -32 -11 -35 -16 -4 -5 -14 -9 -23 -9 -9
0 -23 -4 -30 -8 -15 -10 -5 -42 13 -42 9 0 10 -12 3 -50 -10 -57 4 -125 31
-151 32 -30 9 -152 -30 -164 -9 -3 -22 -23 -29 -45 -11 -33 -18 -40 -42 -42
-72 -4 -70 -6 -74 37 -3 31 -11 46 -36 67 -18 15 -38 28 -44 28 -6 0 -17 7
-24 15 -17 21 -130 18 -147 -4 -7 -9 -13 -35 -13 -59 0 -41 -1 -43 -27 -39
-17 2 -32 12 -38 25 -7 17 -19 22 -47 23 -64 2 -78 10 -78 45 0 13 -6 24 -12
24 -17 0 -48 74 -41 99 3 10 -3 30 -12 45 -9 14 -14 30 -10 35 3 6 1 19 -5 30
-11 21 2 70 22 82 12 8 -8 47 -34 67 -26 19 -22 38 11 62 17 11 33 29 36 40 3
10 15 22 26 25 10 4 19 13 19 20 0 10 -6 12 -17 8 -13 -5 -9 4 11 28 16 18 31
34 34 34 3 0 9 -12 13 -26 5 -19 1 -36 -12 -55 -23 -35 -25 -74 -4 -74 9 0 19
8 22 18 4 9 9 19 12 22 3 3 17 28 30 55 13 28 33 60 44 72 l20 23 24 -26 c22
-24 23 -24 23 -4 0 13 4 18 11 14 6 -3 9 -17 6 -30 -2 -13 0 -24 4 -24 5 0 9
12 9 28 0 30 -30 55 -55 46 -8 -4 -15 -1 -15 6 0 9 -3 10 -13 1 -8 -6 -17 -7
-21 -3 -5 4 -7 0 -5 -8 1 -8 -5 -28 -15 -45 -10 -16 -32 -55 -49 -85 -22 -38
-32 -50 -35 -37 -2 9 5 32 16 50 15 25 17 39 10 65 -5 17 -12 32 -17 32 -16 0
-71 -70 -66 -83 3 -6 -16 -36 -42 -66 -40 -46 -45 -56 -35 -72 20 -32 12 -35
-12 -5 -28 34 -32 32 -148 -59 -81 -65 -114 -105 -97 -122 7 -7 4 -15 -7 -24
-16 -12 -17 -12 -11 3 6 18 -16 48 -34 48 -6 0 -23 -12 -38 -27 -25 -26 -28
-27 -43 -11 -9 9 -14 19 -11 22 4 3 1 6 -5 6 -7 0 -12 -7 -12 -16 0 -12 -8
-15 -34 -13 -41 4 -65 -14 -59 -44 4 -20 1 -22 -34 -21 -50 2 -62 -4 -56 -26
3 -10 0 -21 -7 -25 -7 -4 -11 -1 -9 6 9 68 -16 76 -69 22 -57 -56 -90 -71
-137 -61 -71 15 -98 8 -108 -31 -5 -23 -4 -44 4 -64 10 -24 10 -32 1 -35 -7
-2 -10 -13 -6 -26 5 -20 -32 -95 -83 -166 -17 -24 -25 -37 -73 -127 -24 -45
-25 -65 -3 -106 15 -29 23 -107 23 -242 0 -16 12 -47 26 -68 37 -57 53 -109
47 -156 -6 -45 8 -89 43 -136 29 -38 46 -83 35 -90 -9 -5 -21 -56 -22 -88 0
-9 7 -24 15 -33 9 -8 16 -18 16 -22 0 -4 -18 -36 -40 -72 -22 -36 -40 -70 -40
-76 0 -6 -10 -19 -21 -30 -12 -10 -30 -37 -39 -60 -10 -23 -30 -53 -44 -67
-14 -14 -28 -38 -31 -54 -26 -126 -27 -128 -73 -134 -57 -7 -75 -27 -76 -86
-1 -36 -10 -62 -35 -103 -26 -41 -36 -69 -39 -113 -4 -48 -2 -57 12 -57 9 0
16 5 16 11 0 5 -5 7 -11 3 -8 -5 -10 9 -6 50 3 32 8 60 11 63 3 4 6 1 6 -5 0
-7 5 -12 11 -12 6 0 8 9 4 20 -7 23 24 82 38 73 6 -4 8 9 4 33 -4 22 -3 52 1
67 l7 28 32 -39 c17 -21 41 -60 53 -85 42 -89 90 -118 132 -80 14 13 23 15 36
7 23 -14 79 -7 125 17 21 10 46 19 57 19 23 0 24 4 8 33 -7 12 -13 55 -13 95
-1 70 -1 72 23 72 13 0 35 -9 49 -20 33 -26 33 -26 79 11 23 18 46 28 57 25
13 -3 29 7 49 30 18 20 39 34 53 34 13 0 25 7 29 15 5 15 36 22 36 8 -1 -5 -7
-19 -14 -32 -7 -13 -11 -32 -9 -42 4 -12 -8 -30 -32 -54 -34 -31 -37 -39 -32
-74 5 -42 1 -54 -25 -64 -10 -3 -18 -14 -18 -24 -1 -25 -24 -53 -43 -53 -21 0
-31 -18 -19 -33 29 -37 13 -124 -34 -179 -13 -16 -24 -37 -24 -47 0 -9 -4 -21
-9 -26 -5 -6 -12 -33 -16 -60 -5 -43 -3 -55 15 -77 13 -17 26 -25 37 -21 9 4
19 -1 25 -10 5 -10 18 -17 28 -17 17 0 18 -3 8 -27 -7 -16 -21 -38 -31 -50
-29 -33 -16 -56 29 -51 45 5 57 -13 42 -70 -8 -33 -15 -42 -32 -42 -29 0 -49
-15 -52 -37 -2 -10 -6 -40 -10 -68 -4 -27 -13 -58 -22 -67 -10 -12 -13 -31
-10 -63 3 -25 2 -48 -3 -51 -5 -3 -9 -18 -9 -35 0 -16 -4 -29 -10 -29 -5 0
-16 -13 -25 -30 -9 -16 -22 -30 -30 -30 -21 0 -139 -116 -131 -129 4 -6 3 -11
-3 -11 -6 0 -15 8 -20 19 -12 21 -75 61 -97 61 -8 0 -19 12 -25 27 -6 16 -17
40 -25 55 -8 14 -14 39 -14 54 0 20 -14 41 -50 76 l-50 48 1 82 c1 46 -2 103
-5 128 -7 48 -2 60 29 78 11 6 15 12 8 12 -7 0 -10 7 -6 16 3 9 -5 26 -19 42
-16 18 -25 40 -27 67 -1 30 -9 47 -32 68 -46 44 -55 64 -79 172 -12 55 -26
104 -31 109 -5 6 -6 1 -4 -10 3 -10 15 -63 27 -118 20 -90 25 -102 65 -141 37
-37 43 -49 43 -84 0 -31 6 -46 25 -63 25 -22 31 -68 8 -68 -15 0 -28 -63 -18
-87 3 -10 6 -60 6 -111 l-1 -94 50 -52 c32 -34 50 -62 50 -78 0 -13 7 -33 15
-44 8 -10 15 -28 15 -40 0 -22 29 -54 48 -54 21 0 69 -35 65 -47 -5 -15 37
-33 76 -33 58 0 133 -37 194 -96 20 -19 29 -20 88 -14 67 7 86 15 158 63 79
53 189 90 261 89 61 -1 93 9 160 50 8 5 23 11 33 14 9 4 17 11 17 16 0 6 6 24
14 41 8 18 26 66 40 107 33 98 52 145 81 201 14 25 29 70 35 100 6 30 21 90
35 134 40 131 54 186 65 259 11 68 59 225 87 279 25 49 74 208 119 387 24 96
58 203 74 238 17 35 30 69 30 76 0 6 -15 -19 -32 -56 -30 -64 -34 -68 -65 -68
-22 0 -36 6 -43 20 -6 11 -21 20 -34 20 -13 0 -26 7 -30 15 -9 24 -20 18 -36
-21 -15 -37 -17 -38 -99 -47 -35 -3 -51 32 -40 83 6 28 5 46 -6 67 -8 15 -15
31 -15 35 0 10 101 58 122 58 10 0 18 4 18 10 0 5 9 2 19 -6 19 -17 80 -28 82
-15 0 3 2 21 4 39 1 18 10 39 19 45 13 10 14 19 7 45 -9 31 -9 32 15 26 20 -5
26 -2 31 15 3 11 9 21 14 21 5 0 9 7 9 16 0 10 6 13 19 9 12 -3 21 0 25 10 3
8 1 15 -4 15 -6 0 -10 13 -10 29 0 17 -5 33 -11 36 -6 4 -8 13 -5 21 3 7 -1
19 -8 26 -16 17 -37 78 -30 89 3 5 1 24 -4 42 -11 40 12 77 50 77 12 0 31 7
41 14 21 16 23 54 3 62 -8 3 -12 12 -9 20 3 9 -2 14 -13 14 -18 1 -18 1 1 13
11 6 25 12 30 12 6 0 11 10 13 21 2 16 12 23 40 28 20 3 46 3 57 1 26 -6 56
17 58 44 1 19 6 21 32 15 45 -9 49 -18 30 -74 -9 -28 -18 -68 -19 -88 -1 -20
-5 -42 -9 -48 -3 -6 -10 -31 -14 -55 -7 -42 -7 -43 -13 -14 l-6 30 -5 -32 c-3
-18 -2 -30 3 -27 4 3 8 0 8 -5 0 -6 -5 -11 -10 -11 -6 0 -9 -3 -9 -7 1 -5 1
-17 0 -28 -1 -17 -3 -18 -12 -5 -8 12 -9 10 -4 -7 4 -13 2 -23 -4 -23 -6 0 -8
-7 -4 -16 7 -20 57 94 68 154 4 23 10 44 14 47 4 2 8 24 9 47 0 24 8 60 17 82
10 23 14 49 10 67 -4 16 -6 31 -6 34 0 2 -6 22 -13 43 -13 35 -12 43 18 117
30 77 32 80 71 89 52 12 52 13 28 36 l-21 19 26 50 c23 42 25 54 16 78 -7 20
-7 36 -1 51 9 20 6 27 -22 52 -27 26 -31 34 -26 62 4 18 1 47 -5 63 -20 51
-22 101 -5 115 12 10 15 10 15 -4 0 -10 5 -14 10 -11 6 4 8 11 5 16 -4 5 4 9
16 9 16 0 20 -5 16 -20 -3 -11 1 -27 9 -34 8 -8 14 -24 14 -35 0 -11 5 -23 10
-26 6 -3 10 -14 10 -23 0 -22 51 -68 72 -64 8 2 20 13 27 25 6 12 15 29 20 37
6 8 21 45 35 82 34 86 34 144 1 192 -14 20 -31 49 -39 64 -20 39 -46 173 -40
200 4 12 3 30 -1 39 -4 10 -9 51 -11 91 -2 40 -13 105 -25 145 -12 40 -23 79
-24 87 -1 8 -9 32 -19 54 -9 21 -15 45 -11 54 7 18 -21 79 -45 100 -8 8 -9 11
-2 7 7 -4 12 0 12 9 0 9 -3 15 -7 14 -17 -4 -53 14 -53 28 0 8 -6 14 -13 14
-7 0 -14 14 -15 33 -3 48 -22 87 -42 87 -11 0 -20 10 -24 25 -4 14 -12 25 -19
25 -9 0 -8 3 1 9 11 7 10 16 -7 50 -12 22 -25 41 -29 41 -4 0 -22 -16 -40 -34z
m68 -35 c0 -9 -5 -22 -10 -29 -6 -6 -7 -10 -4 -7 9 6 30 -17 38 -42 4 -13 13
-20 21 -17 19 8 33 -24 31 -66 -1 -24 4 -39 16 -48 21 -15 24 -57 5 -69 -18
-11 -47 -59 -47 -78 0 -8 -4 -15 -9 -15 -5 0 -8 -18 -7 -41 0 -29 -4 -43 -17
-50 -17 -10 -24 -68 -10 -82 27 -27 2 -144 -34 -158 -12 -4 -23 -14 -23 -21 0
-7 -7 -21 -15 -32 -13 -17 -18 -17 -45 -6 -26 11 -33 10 -50 -5 -10 -9 -24
-14 -30 -10 -6 4 -37 8 -69 9 -49 3 -66 9 -103 37 -43 33 -44 36 -30 57 10 16
11 22 2 22 -21 0 -70 -33 -76 -52 -3 -10 -11 -15 -21 -11 -14 5 -14 7 0 15 14
7 12 12 -9 33 -23 23 -33 65 -15 65 4 0 6 11 3 25 -2 15 0 25 7 25 6 0 12 8
12 18 1 16 2 16 6 -1 2 -9 9 -15 14 -11 5 3 6 11 3 17 -4 7 3 2 16 -11 12 -13
25 -35 29 -49 9 -32 36 -52 51 -37 5 5 11 29 12 52 1 38 4 42 27 43 14 1 30 1
35 0 5 -1 6 5 2 14 -3 8 -9 22 -12 30 -5 13 -1 12 25 -2 28 -16 33 -17 57 -3
27 15 36 35 35 78 -1 13 10 47 24 76 27 57 30 77 15 92 -5 5 -11 25 -12 43 -2
20 -13 45 -28 59 -18 19 -21 27 -11 30 8 3 22 -6 32 -19 l18 -24 10 28 c6 16
11 32 11 37 0 5 9 12 20 15 11 3 20 11 20 16 0 5 6 8 13 7 6 -2 11 3 9 11 -2
8 3 18 10 23 10 6 8 9 -8 14 -20 5 -20 6 5 34 l26 29 18 -21 c9 -11 17 -28 17
-37z m169 -287 c5 -7 7 -15 4 -18 -4 -3 -2 -6 4 -6 13 0 35 -49 27 -62 -8 -13
16 -88 29 -88 5 0 7 -6 4 -14 -3 -8 5 -49 19 -90 15 -48 25 -102 26 -148 1
-40 6 -79 11 -86 5 -6 7 -26 3 -42 -10 -50 21 -168 65 -249 38 -68 41 -78 35
-124 -8 -60 -80 -217 -99 -217 -23 0 -51 98 -52 180 -1 68 -3 75 -20 75 -25 0
-44 23 -45 52 0 23 -15 37 -41 38 -18 0 -99 97 -99 117 0 8 -7 24 -16 36 -8
12 -12 27 -9 32 4 6 -16 33 -44 61 -49 51 -49 52 -30 72 10 11 19 27 19 34 0
7 11 18 25 23 14 5 25 17 25 28 0 10 4 22 9 28 9 9 16 50 11 69 -2 6 -4 15 -5
20 -1 6 -5 25 -9 44 -7 28 -5 37 10 48 11 8 18 27 19 51 1 38 42 132 57 132 5
0 13 12 19 28 10 26 11 26 24 7 8 -11 19 -25 24 -31z m-533 -164 c2 -33 -15
-40 -36 -15 -13 15 -5 39 11 30 5 -4 9 2 9 11 0 29 14 6 16 -26z m-136 -474
c0 -3 -4 -8 -10 -11 -5 -3 -10 -1 -10 4 0 6 5 11 10 11 6 0 10 -2 10 -4z m589
-142 c19 -25 37 -39 53 -39 17 0 24 -7 26 -25 5 -32 30 -60 48 -53 14 5 19
-21 15 -80 -1 -15 5 -52 14 -83 9 -31 14 -59 11 -62 -3 -2 -8 4 -11 14 -4 10
-11 27 -16 36 -5 10 -9 27 -9 37 0 11 -4 23 -10 26 -5 3 -10 20 -10 36 0 28
-2 29 -35 27 -63 -4 -79 -50 -46 -133 7 -16 10 -44 6 -62 -7 -36 8 -73 30 -73
20 0 26 -15 16 -42 -5 -13 -5 -33 1 -48 10 -26 -15 -110 -33 -110 -16 0 -9
-29 10 -43 19 -12 17 -14 -22 -24 -36 -10 -45 -17 -56 -50 -7 -21 -22 -57 -33
-81 -17 -38 -17 -48 -7 -80 23 -67 22 -70 -33 -47 -12 5 -18 0 -23 -17 -12
-37 -35 -59 -53 -49 -9 5 -26 5 -41 -1 -21 -8 -29 -6 -42 11 -10 12 -27 21
-40 21 -22 0 -22 0 -3 18 28 25 47 72 35 86 -6 7 -8 44 -5 87 3 41 5 81 5 89
1 21 27 78 39 85 6 4 8 10 5 15 -7 12 13 52 32 63 22 13 52 83 47 110 -2 14 0
28 6 32 6 3 0 17 -14 32 -25 27 -49 92 -42 114 2 8 7 33 10 57 5 33 3 42 -9
42 -21 0 -19 19 3 26 9 4 31 12 49 20 17 8 36 14 42 14 6 0 11 9 11 21 0 11 4
18 9 14 14 -8 19 4 22 55 3 46 8 65 15 57 3 -2 18 -22 33 -43z m-929 -95 c0
-7 8 -17 17 -24 15 -11 15 -14 -5 -40 -12 -15 -22 -35 -22 -44 0 -9 3 -12 8
-6 4 6 19 16 34 22 26 12 26 11 18 -17 -10 -35 -5 -97 10 -115 14 -17 22 -57
9 -50 -14 9 -11 -2 16 -55 14 -28 30 -50 35 -50 17 0 1 -42 -26 -67 l-28 -25
35 -29 c19 -16 29 -29 24 -29 -6 0 -15 4 -20 9 -6 4 -25 13 -44 19 -26 9 -37
9 -54 -3 -14 -10 -34 -12 -64 -8 -37 5 -43 3 -43 -12 0 -10 -8 -42 -17 -72
-12 -38 -22 -53 -35 -53 -12 0 -18 -7 -18 -21 0 -12 -5 -19 -12 -16 -7 2 -21
-2 -30 -11 -13 -11 -18 -12 -18 -2 0 7 -8 10 -20 7 -16 -4 -22 2 -30 34 -8 29
-16 39 -31 39 -11 0 -22 -7 -25 -15 -7 -18 -37 -19 -63 -3 -15 9 -28 9 -55 1
-27 -8 -38 -8 -46 2 -5 7 -21 10 -35 7 -18 -3 -25 0 -25 12 0 9 -4 24 -9 34
-5 9 -12 24 -15 34 -2 9 -17 22 -32 30 -34 16 -74 72 -74 103 0 12 -10 30 -22
41 l-22 19 18 -28 c9 -16 15 -34 13 -42 -3 -7 0 -18 6 -24 7 -7 12 -15 12 -19
0 -16 49 -61 71 -66 15 -4 24 -14 24 -26 0 -10 5 -22 10 -25 6 -3 10 -17 10
-30 0 -26 26 -41 45 -25 18 15 31 -6 15 -25 -16 -19 7 -122 36 -163 7 -10 66
-12 83 -3 16 9 21 7 25 -7 11 -33 -4 -161 -23 -204 -10 -24 -21 -51 -25 -60
-4 -15 -10 -16 -32 -8 -20 8 -31 7 -43 -3 -18 -16 -86 -14 -107 4 -8 6 -24 9
-36 6 -12 -4 -28 -2 -34 4 -14 12 -54 -4 -54 -21 0 -6 -7 -10 -15 -10 -28 0
-34 -32 -14 -72 10 -20 19 -45 19 -55 0 -10 7 -31 15 -47 9 -16 14 -37 13 -45
-1 -9 1 -22 5 -29 5 -7 9 -27 9 -45 0 -17 5 -38 11 -44 7 -10 2 -13 -21 -13
-17 0 -34 -5 -37 -10 -10 -16 -107 0 -131 21 -11 11 -34 19 -51 19 -37 0 -44
15 -38 79 5 50 -18 126 -47 158 -21 22 -28 67 -31 208 -2 57 -7 87 -20 105
-21 30 -21 56 1 96 9 17 26 48 37 70 11 21 27 47 36 57 9 9 22 30 29 45 8 15
25 42 38 60 13 18 22 42 21 55 -1 12 2 30 6 40 4 10 3 29 -3 43 -7 13 -9 38
-5 54 l6 31 61 -7 c33 -3 64 -8 68 -10 10 -6 88 44 88 55 0 13 60 55 67 47 3
-3 6 -19 5 -36 0 -16 2 -30 6 -30 17 1 42 29 37 42 -4 10 4 15 31 16 29 2 35
0 31 -13 -4 -8 -3 -15 2 -15 10 0 21 35 21 69 0 21 3 23 35 18 19 -3 37 -1 40
4 10 15 35 10 35 -6 0 -8 4 -15 9 -15 5 0 16 -2 24 -5 8 -4 14 0 14 10 0 8 -5
15 -10 15 -5 0 -4 7 3 16 16 19 66 15 62 -5 -5 -24 30 -80 46 -74 11 5 11 7 0
14 -10 7 -9 9 4 9 9 0 18 -6 21 -12 2 -7 7 -10 10 -7 11 9 -23 49 -41 48 -14
0 -14 -2 2 -8 17 -7 18 -8 3 -14 -25 -9 -31 12 -10 35 12 14 14 22 6 25 -23 8
1 35 99 114 99 78 118 89 118 68z m64 -45 c4 -9 5 -17 4 -18 -2 -1 -13 -7 -25
-13 -33 -19 -36 -16 -16 17 20 34 28 37 37 14z m417 -350 c6 -8 19 -14 29 -14
10 0 20 -7 24 -15 3 -8 12 -15 20 -15 17 0 29 -31 30 -75 1 -30 2 -30 53 -28
54 2 60 -6 31 -44 -14 -18 -24 -228 -10 -219 8 5 8 -2 0 -24 -6 -17 -19 -37
-29 -43 -27 -17 -23 -37 6 -37 24 0 31 -12 25 -50 -2 -19 -2 -19 -28 -23 -12
-2 -24 -6 -28 -10 -9 -8 18 -67 31 -67 6 0 11 -9 12 -20 2 -23 -38 -44 -66
-36 -25 8 -54 -56 -40 -91 5 -14 7 -33 4 -41 -6 -17 15 -92 27 -92 4 0 8 -9 8
-19 0 -11 5 -23 11 -26 6 -4 8 -14 5 -22 -3 -8 -1 -23 4 -34 9 -16 7 -19 -10
-19 -11 0 -20 -7 -20 -15 0 -8 -4 -15 -9 -15 -5 0 -13 -9 -16 -20 -5 -16 -10
-18 -26 -10 -25 14 -36 -11 -21 -45 9 -20 8 -24 -6 -27 -9 -2 -17 -10 -18 -18
-1 -8 -2 -27 -2 -42 -2 -23 -7 -28 -29 -28 -14 0 -35 8 -45 17 -13 11 -22 14
-26 7 -4 -6 -17 -13 -29 -16 -21 -6 -23 -3 -23 36 0 23 7 52 16 64 12 17 14
37 10 75 -7 71 -7 60 4 178 5 58 14 118 20 134 6 15 8 35 6 44 -3 9 -7 41 -11
71 -3 32 -12 60 -20 66 -14 10 -14 15 0 40 8 16 15 34 15 40 0 7 7 14 15 18
22 8 18 21 -10 36 -34 18 -31 35 10 54 23 11 37 26 41 44 4 15 11 32 16 39 12
16 -1 63 -18 63 -8 0 -15 7 -15 15 -2 24 -4 28 -26 64 -28 44 -41 165 -21 196
10 17 115 16 129 -1z m-281 -54 c37 0 50 -4 50 -15 0 -16 27 -33 62 -38 17 -3
24 -11 26 -33 2 -15 12 -40 23 -55 10 -15 19 -36 19 -47 0 -12 9 -27 19 -34
25 -18 28 -35 12 -81 -10 -29 -22 -43 -47 -53 -42 -18 -44 -45 -6 -73 17 -13
22 -20 12 -21 -9 0 -22 -20 -32 -47 -16 -43 -16 -49 -1 -65 9 -10 15 -34 15
-59 -1 -22 3 -52 8 -65 5 -13 6 -26 1 -28 -9 -6 -21 -87 -27 -186 -2 -36 -5
-74 -5 -85 -1 -11 1 -40 5 -65 5 -33 3 -50 -9 -64 -13 -18 -16 -18 -32 -4 -10
9 -27 18 -37 19 -10 2 -22 11 -27 19 -14 28 -22 55 -20 71 1 9 -5 19 -14 22
-8 4 -15 18 -15 31 0 14 -8 31 -19 38 -10 7 -19 18 -20 23 -1 6 -12 15 -24 21
-12 6 -35 17 -51 25 -16 8 -34 23 -40 34 -6 11 -14 22 -17 25 -3 3 -9 13 -12
23 -4 11 -15 21 -25 24 -24 6 -72 80 -72 110 0 13 -12 47 -27 76 -15 29 -28
56 -28 61 0 5 28 11 63 13 52 4 62 2 62 -11 0 -9 8 -16 19 -16 11 0 23 -5 26
-10 4 -6 16 -3 32 10 32 25 79 27 85 3 3 -10 17 -24 31 -32 23 -12 30 -12 61
3 20 9 36 22 36 28 0 6 15 8 36 6 29 -3 33 -2 20 8 -17 12 -66 7 -66 -7 0 -9
-54 -40 -67 -38 -15 1 -43 32 -43 46 0 20 -46 20 -90 0 -31 -15 -70 -10 -70 9
0 9 -12 14 -32 15 -30 1 -42 0 -88 -5 -16 -3 -37 -10 -85 -31 -34 -15 -101
-13 -117 3 -6 6 -10 35 -10 64 2 71 -7 84 -47 70 -17 -6 -37 -9 -44 -6 -26 11
-51 60 -55 110 -4 50 -3 53 22 60 14 3 51 3 81 -1 44 -5 58 -3 71 10 13 13 19
14 25 4 4 -7 6 -16 3 -20 -2 -4 0 -10 6 -14 5 -3 10 -15 10 -26 0 -10 5 -19
10 -19 6 0 10 5 10 10 0 6 5 10 10 10 6 0 10 -7 10 -15 0 -22 17 -18 30 6 9
15 15 18 24 10 15 -13 26 -4 26 21 0 11 7 18 19 18 15 0 22 15 37 70 l18 69
32 -5 c19 -3 45 1 61 9 29 16 73 7 104 -19 9 -8 19 -11 22 -7 14 14 6 32 -21
49 l-29 16 26 28 c20 20 28 24 34 13 5 -8 27 -13 57 -13z m-367 -512 c15 -16
43 -81 56 -131 11 -44 56 -107 75 -107 8 0 23 -18 35 -40 19 -37 19 -40 3 -41
-29 -2 -66 1 -98 7 -28 5 -31 4 -31 -23 -1 -42 -21 -82 -88 -173 -52 -72 -66
-81 -130 -85 -45 -3 -53 -1 -52 13 2 31 -13 73 -24 66 -15 -9 -49 25 -42 42 3
8 1 14 -4 14 -15 0 -41 53 -44 92 -3 28 2 43 19 61 21 22 23 31 18 90 l-6 66
30 -9 c20 -6 32 -5 37 3 22 35 53 112 53 133 0 23 1 23 39 9 35 -12 45 -12 88
5 59 23 52 22 66 8z m-472 -153 c5 4 26 -1 45 -10 19 -9 43 -13 54 -10 11 4
20 2 20 -3 0 -5 7 -9 16 -8 12 1 16 -11 19 -47 2 -39 -2 -53 -19 -72 -16 -17
-22 -35 -20 -63 1 -39 31 -102 47 -102 4 0 6 -4 3 -8 -9 -15 24 -52 46 -52 19
0 20 -4 15 -52 -4 -30 -2 -69 5 -91 10 -32 9 -43 -4 -65 -11 -19 -15 -43 -12
-77 15 -173 18 -255 10 -258 -5 -2 -9 -17 -10 -35 -1 -24 -6 -32 -19 -32 -10
0 -20 -7 -23 -15 -4 -8 -16 -15 -29 -15 -14 0 -33 -13 -50 -34 -19 -23 -33
-32 -46 -29 -11 3 -33 -5 -53 -21 -39 -29 -63 -33 -80 -12 -6 7 -27 16 -47 19
l-36 5 -1 -76 c-1 -46 5 -88 13 -104 12 -25 12 -28 -4 -28 -9 0 -34 -9 -55
-20 -21 -10 -52 -18 -67 -16 -16 2 -29 -1 -29 -6 0 -5 -7 -2 -16 6 -14 15 -18
14 -45 -5 -19 -13 -38 -19 -52 -15 -24 7 -60 57 -70 98 -4 13 -17 36 -29 50
-31 34 -48 65 -41 72 4 3 21 6 39 6 40 0 59 24 69 90 9 53 25 88 53 114 12 10
24 31 27 46 3 15 19 42 36 61 16 18 29 36 29 41 0 5 12 27 27 51 58 90 63 106
38 131 -11 11 -14 26 -9 56 4 22 11 43 15 46 17 10 9 40 -25 90 l-33 52 29 -2
c16 -1 34 -9 39 -19 7 -11 22 -17 47 -17 21 0 43 -5 49 -11 8 -8 17 -7 34 2
13 7 37 14 52 15 36 2 46 12 27 27 -8 7 -16 30 -17 52 -1 22 -6 41 -12 43 -5
2 -7 10 -4 18 6 17 -33 145 -53 171 -11 16 -9 22 24 50 28 24 41 29 55 22 9
-6 22 -7 28 -4z m563 -172 c4 -5 31 -8 59 -9 56 -1 147 -37 147 -59 0 -7 10
-15 21 -18 17 -5 20 -11 17 -31 -3 -14 -1 -27 3 -28 14 -5 -6 -63 -22 -64 -8
-1 -22 -2 -31 -3 -10 0 -18 -8 -18 -16 0 -18 -1 -18 -35 -5 -20 8 -25 15 -20
30 6 18 2 20 -44 20 -28 0 -51 -4 -51 -8 0 -16 -85 -57 -120 -58 -19 -1 -51
-5 -70 -8 l-35 -7 28 18 c15 10 27 22 27 28 0 6 13 26 28 45 37 45 85 148 78
166 -6 15 25 20 38 7z m106 -212 c0 -23 4 -26 48 -36 25 -5 32 -3 32 9 0 11 9
16 29 16 17 0 31 6 35 16 7 19 31 14 31 -7 1 -25 25 -59 43 -59 36 -1 59 -33
59 -83 0 -26 -5 -47 -10 -47 -5 0 -22 -9 -38 -21 -21 -15 -28 -26 -24 -39 7
-24 -22 -34 -93 -33 -41 1 -55 -4 -66 -19 -8 -11 -27 -20 -47 -21 -19 -2 -45
-10 -59 -19 -19 -12 -40 -15 -85 -11 -59 5 -105 9 -116 12 -3 0 -4 14 -1 30 3
22 -1 32 -16 40 -15 8 -22 8 -25 -2 -4 -8 -12 -5 -24 11 -21 26 -83 44 -104
31 -11 -7 -9 -9 6 -10 57 -4 69 -8 89 -32 16 -19 26 -23 33 -16 16 16 32 2 28
-23 -6 -29 12 -48 44 -48 14 0 57 -2 96 -4 56 -4 73 -2 88 12 19 17 22 18 69
20 16 1 29 9 32 20 5 15 16 18 59 17 28 -1 62 2 74 6 32 12 46 -10 32 -50 -6
-17 -8 -42 -5 -56 3 -13 -1 -42 -10 -64 -8 -21 -14 -47 -12 -57 2 -13 -4 -20
-19 -22 -23 -3 -37 -39 -27 -66 5 -12 0 -16 -20 -16 -21 0 -26 5 -26 24 0 14
-4 28 -10 31 -12 7 -100 -32 -100 -45 0 -6 -6 -10 -14 -10 -8 0 -16 -5 -18
-10 -5 -15 -100 55 -115 85 -16 29 -20 30 -45 9 -14 -13 -21 -14 -32 -5 -11
10 -17 7 -30 -11 -9 -12 -16 -27 -16 -33 0 -20 -38 -34 -80 -29 -25 3 -47 0
-56 -7 -8 -6 -17 -9 -20 -6 -10 10 -8 78 2 85 14 9 5 267 -10 290 -4 6 0 25 9
41 18 36 19 54 3 98 -6 18 -10 35 -7 38 3 3 45 7 93 10 48 2 94 9 103 13 9 5
31 6 49 2 26 -6 37 -4 50 11 9 11 22 19 29 19 7 0 20 9 30 20 25 28 85 28 85
1z m442 -385 c4 3 11 -4 18 -15 8 -15 20 -21 45 -21 19 0 35 -3 35 -7 0 -5
-12 -48 -26 -98 -14 -49 -27 -103 -29 -118 -2 -16 -9 -43 -15 -60 -5 -18 -25
-81 -44 -142 -18 -60 -45 -135 -59 -165 -14 -30 -33 -81 -42 -113 -15 -57 -17
-58 -45 -52 -16 4 -31 2 -35 -5 -5 -8 -10 -8 -20 0 -7 6 -17 9 -23 8 -5 -2
-24 10 -42 25 -20 18 -39 27 -51 24 -12 -3 -19 0 -19 8 0 7 -16 22 -36 34 -31
19 -34 23 -20 36 8 8 20 13 28 10 20 -8 42 33 27 51 -9 11 -7 18 11 32 24 20
41 114 32 189 -3 26 0 49 8 58 15 18 6 45 -15 45 -8 0 -15 7 -15 16 0 10 7 14
23 12 17 -2 22 2 23 22 2 53 5 59 27 62 18 2 22 9 20 33 -1 16 4 36 12 45 8 9
12 19 9 23 -3 3 -3 11 1 17 5 8 10 8 20 0 10 -8 24 -8 51 -1 27 7 42 7 51 0 9
-8 14 -8 18 2 26 74 23 71 48 54 13 -8 26 -12 29 -9z m-559 -218 c44 -41 79
-57 85 -39 2 6 8 8 14 5 5 -3 12 3 15 15 3 12 13 21 22 21 9 0 25 7 35 15 26
19 31 19 33 -2 5 -48 16 -83 27 -83 20 0 9 -229 -12 -259 -37 -51 -37 -53 -25
-58 9 -3 10 -10 3 -23 -6 -11 -16 -17 -23 -15 -6 3 -25 -6 -40 -19 -16 -14
-35 -22 -43 -19 -8 3 -14 1 -14 -4 0 -17 -101 -2 -121 18 -11 11 -26 19 -34
19 -9 0 -15 9 -15 23 0 58 -96 112 -195 108 -33 -1 -115 36 -116 53 0 6 -2 19
-4 29 -4 24 25 76 48 83 11 3 17 16 17 37 0 27 19 79 20 53 0 -4 11 -1 25 8
19 13 33 14 65 7 30 -7 42 -5 51 5 6 7 16 12 22 11 7 -1 11 4 9 11 -4 24 18
53 37 47 9 -3 26 1 37 9 17 13 20 12 28 -2 4 -9 26 -34 49 -54z m-375 -284
c18 -8 34 -20 38 -25 3 -6 19 -7 34 -4 16 4 57 -1 92 -9 69 -18 108 -50 108
-92 0 -15 6 -24 15 -24 8 0 15 -4 15 -10 0 -5 7 -6 17 -3 10 4 14 2 10 -4 -13
-21 19 -31 85 -27 66 3 68 3 91 -29 14 -18 25 -39 26 -47 6 -85 6 -190 -1
-190 -4 0 -8 -8 -9 -17 0 -12 -2 -13 -6 -5 -4 10 -8 10 -19 1 -11 -9 -15 -8
-20 4 -4 11 -17 15 -39 14 -45 -3 -51 -11 -31 -42 9 -14 14 -30 11 -35 -4 -6
-1 -36 5 -67 9 -42 9 -58 1 -61 -6 -2 -11 -12 -11 -23 0 -28 -47 -45 -70 -24
-9 8 -23 15 -31 15 -21 0 -41 37 -31 58 15 28 13 90 -3 96 -8 3 -26 29 -41 58
-64 129 -133 154 -259 92 -63 -31 -85 -57 -85 -100 0 -36 -25 -49 -36 -19 -4
8 -19 15 -35 15 -34 0 -54 30 -44 68 4 15 9 36 10 47 4 34 32 92 54 114 12 12
21 30 21 40 0 11 4 22 9 25 11 7 3 97 -11 114 -8 9 -6 12 7 12 27 0 55 29 55
57 0 16 6 23 20 23 11 0 20 5 20 10 0 13 1 13 38 -6z m536 -205 c20 -12 36
-28 36 -36 0 -11 7 -14 25 -11 16 4 30 -2 42 -15 27 -30 82 -51 98 -37 10 8
19 8 34 -2 23 -14 22 -39 -6 -153 -8 -33 -18 -78 -23 -100 -5 -23 -17 -63 -28
-90 -11 -28 -23 -70 -26 -95 -9 -53 -37 -130 -49 -130 -5 0 -6 -4 -2 -9 13
-22 -17 -20 -53 3 -51 32 -77 37 -76 14 1 -12 -5 -18 -18 -18 -17 0 -20 -5
-15 -29 6 -28 -7 -51 -29 -51 -7 0 -10 8 -7 20 6 24 -13 50 -37 50 -9 0 -22
11 -28 24 -6 13 -21 27 -34 31 -28 9 -68 44 -68 61 0 6 8 22 19 35 16 20 21
21 48 10 38 -16 83 0 83 29 0 11 5 20 11 20 8 0 9 15 4 53 -5 28 -9 66 -9 84
-1 17 -4 35 -8 39 -5 4 -8 14 -8 22 0 11 3 12 14 3 10 -9 16 -9 21 -1 5 8 11
7 22 -2 24 -19 46 -19 66 3 16 17 18 32 13 119 -5 97 -13 127 -44 163 -20 23
-11 22 32 -4z m-391 -193 c32 -19 50 -41 75 -90 18 -35 39 -67 47 -70 15 -5
15 -34 1 -88 -5 -17 -2 -34 9 -51 15 -23 14 -27 -5 -59 l-20 -34 28 -26 c15
-14 39 -28 54 -32 18 -4 30 -15 34 -31 4 -15 13 -25 24 -25 22 0 35 -17 35
-45 0 -29 40 -32 55 -5 6 11 8 30 5 41 -4 11 -3 19 2 18 23 -4 35 2 29 16 -8
22 9 19 60 -11 37 -22 43 -30 38 -48 -4 -11 -10 -23 -14 -26 -4 -3 -11 -21
-15 -40 -7 -33 -29 -92 -61 -167 -8 -17 -14 -36 -14 -42 0 -6 -6 -11 -14 -11
-8 0 -16 -5 -18 -11 -2 -5 -10 -11 -18 -12 -9 -1 -31 -12 -51 -24 -27 -17 -49
-22 -95 -21 -32 1 -69 -2 -80 -5 -18 -6 -21 -4 -17 16 4 17 -2 26 -21 35 -14
6 -26 16 -26 22 0 5 -7 10 -15 10 -8 0 -15 7 -15 15 0 9 -7 18 -16 22 -11 4
-14 13 -9 30 3 13 3 29 -1 35 -11 17 -13 68 -3 68 5 0 9 8 9 18 0 16 -12 35
-48 77 -5 5 -4 21 1 36 8 21 6 30 -12 48 -12 12 -26 19 -31 16 -4 -3 -10 0
-12 6 -2 6 -14 5 -33 -5 -31 -16 -48 -7 -38 21 3 7 -2 25 -12 39 -10 16 -13
30 -7 37 20 26 20 47 1 71 -16 20 -25 24 -54 19 -38 -6 -46 6 -19 28 20 17 34
52 40 104 9 72 13 80 56 103 46 24 115 50 136 51 7 1 32 -10 55 -23z m-211
-425 c-3 -27 14 -52 31 -45 66 24 120 -4 99 -51 -8 -18 -9 -30 -2 -38 56 -66
61 -77 35 -77 -13 0 -14 -4 -5 -21 7 -11 9 -28 5 -36 -3 -9 0 -20 7 -24 10 -6
10 -11 1 -20 -9 -9 -7 -21 10 -50 12 -22 27 -39 32 -39 6 0 22 -11 37 -24 40
-35 28 -57 -45 -86 -34 -14 -82 -40 -106 -58 -31 -25 -60 -36 -105 -43 -33 -5
-71 -11 -83 -14 -16 -4 -23 -1 -23 10 0 9 -12 20 -27 26 -16 5 -38 21 -51 34
-14 16 -43 29 -82 37 -43 9 -60 16 -60 28 0 17 101 110 119 110 16 0 82 92 77
107 -3 7 -1 15 5 19 6 3 7 24 3 50 -4 31 -2 51 8 67 16 23 27 69 31 122 2 34
19 45 62 42 25 -2 30 -6 27 -26z"/>

<path d="M2360 5160 c0 -5 5 -10 11 -10 5 0 7 5 4 10 -3 6 -8 10 -11 10 -2 0
-4 -4 -4 -10z"/>

<path d="M2381 5130 c-1 -8 -4 -26 -8 -39 -5 -20 -4 -22 13 -13 10 5 26 7 34
5 9 -3 6 3 -6 14 -12 10 -24 25 -27 33 -5 13 -6 13 -6 0z"/>

<path d="M2291 4706 c-14 -14 -19 -26 -13 -26 6 0 14 6 19 13 5 7 10 -12 13
-48 3 -33 7 -55 10 -50 3 6 3 39 0 73 l-5 64 -24 -26z"/>

<path d="M2553 4385 c-9 -24 5 -31 21 -10 13 19 36 13 36 -9 0 -7 -12 -23 -26
-37 -14 -13 -30 -32 -35 -41 -9 -16 -4 -18 36 -18 25 0 45 5 45 10 0 6 -14 10
-31 10 l-31 0 31 29 c33 31 38 50 19 69 -17 17 -58 15 -65 -3z"/>

<path d="M2387 3552 c-21 -23 -22 -39 -2 -22 13 11 15 6 15 -39 0 -28 5 -51
10 -51 6 0 10 28 10 65 0 68 -6 77 -33 47z"/>

<path d="M2466 3554 c-10 -26 -7 -28 14 -9 16 15 23 16 33 6 9 -10 8 -15 -5
-25 -22 -16 -23 -26 -3 -26 18 0 20 -36 3 -46 -6 -4 -17 1 -24 11 -8 10 -17
16 -20 12 -4 -4 -1 -14 6 -22 29 -35 87 6 63 44 -8 13 -9 21 -1 29 8 8 8 15
-2 27 -16 20 -56 19 -64 -1z"/>

<path d="M1186 3659 c4 -8 -1 -9 -16 -4 -14 4 -20 3 -16 -3 3 -5 15 -12 26
-15 15 -4 20 0 20 14 0 10 -5 19 -11 19 -5 0 -7 -5 -3 -11z"/>

<path d="M1326 3624 c-18 -18 -20 -30 -6 -39 6 -4 5 -13 -3 -25 -22 -37 25
-77 58 -50 17 14 20 60 5 60 -6 0 -5 8 2 21 11 17 10 22 -6 35 -25 18 -31 18
-50 -2z m44 -18 c0 -8 -5 -18 -11 -22 -14 -8 -33 11 -25 25 10 16 36 13 36 -3z
m0 -51 c15 -17 5 -35 -20 -35 -22 0 -33 23 -17 39 15 15 22 14 37 -4z"/>

<path d="M743 3231 c-26 -22 -30 -36 -8 -27 12 4 15 -4 15 -39 0 -24 5 -47 10
-50 6 -4 10 20 10 64 0 39 -1 71 -2 71 -2 -1 -13 -9 -25 -19z"/>

<path d="M826 3234 c-30 -30 -13 -124 23 -124 25 0 44 30 44 68 0 64 -33 91
-67 56z m50 -29 c9 -38 -3 -77 -24 -73 -17 3 -29 56 -18 84 9 23 35 16 42 -11z"/>

<path d="M2130 3186 c-6 -19 -16 -37 -23 -40 -9 -3 -8 -5 1 -5 7 -1 10 -7 7
-13 -4 -7 7 2 23 20 19 21 28 41 25 53 -8 29 -20 23 -33 -15z m30 0 c0 -3 -4
-8 -10 -11 -5 -3 -10 -1 -10 4 0 6 5 11 10 11 6 0 10 -2 10 -4z"/>

<path d="M2013 3091 c-27 -23 -30 -36 -5 -22 15 8 17 4 14 -40 -3 -31 0 -49 7
-49 7 0 11 25 11 65 0 36 -1 65 -2 65 -2 -1 -13 -9 -25 -19z"/>

<path d="M2113 3093 c-27 -18 -31 -38 -5 -24 15 8 17 4 14 -40 -3 -31 0 -49 7
-49 7 0 11 25 11 65 0 36 -1 65 -2 64 -2 0 -13 -7 -25 -16z"/>

<path d="M1618 3315 c-10 -22 -9 -29 10 -47 17 -18 23 -19 36 -8 13 10 16 10
16 -3 0 -8 -7 -20 -15 -27 -12 -10 -18 -10 -30 0 -9 7 -18 11 -20 8 -12 -12
26 -30 49 -24 30 7 45 63 27 102 -15 34 -57 33 -73 -1z m58 -30 c-3 -9 -14
-15 -23 -13 -22 4 -30 38 -11 49 18 11 43 -15 34 -36z"/>

<path d="M1750 2846 c-16 -25 -30 -47 -30 -50 0 -3 14 -6 30 -6 20 0 30 -5 30
-15 0 -8 5 -15 11 -15 6 0 9 6 6 14 -3 8 -1 17 6 20 8 4 8 8 2 11 -6 3 -9 23
-7 45 5 52 -9 51 -48 -4z m30 -14 c0 -21 -5 -28 -20 -29 -20 -2 -20 -1 -3 28
21 36 23 36 23 1z"/>

<path d="M1288 2829 c-27 -15 -25 -104 2 -119 28 -15 60 4 60 34 0 30 -24 50
-51 43 -15 -4 -19 -2 -15 10 3 8 6 17 6 19 0 10 39 3 43 -8 2 -7 8 -10 12 -6
9 9 -13 38 -29 38 -6 0 -19 -5 -28 -11z m40 -82 c3 -21 -1 -27 -16 -27 -24 0
-36 28 -21 47 17 20 33 11 37 -20z"/>

<path d="M810 2185 c-23 -25 -16 -37 8 -13 9 9 12 -1 12 -47 0 -32 3 -56 6
-52 8 7 11 137 3 137 -3 0 -16 -11 -29 -25z"/>

<path d="M895 2190 c-15 -17 -16 -24 -6 -46 9 -21 17 -25 36 -21 17 3 25 0 25
-10 0 -19 -29 -28 -43 -14 -20 20 -31 12 -12 -9 10 -11 22 -20 27 -20 4 0 17
9 28 20 26 26 26 81 2 103 -24 22 -35 21 -57 -3z m53 -23 c4 -20 -25 -34 -40
-19 -15 15 -1 44 19 40 10 -2 19 -11 21 -21z"/>

<path d="M1530 2665 c-7 -9 -10 -19 -6 -23 4 -4 12 1 17 10 5 10 16 15 24 12
20 -8 19 -34 0 -34 -8 0 -15 -4 -15 -10 0 -5 6 -10 14 -10 21 0 27 -27 9 -41
-13 -11 -17 -10 -28 4 -16 22 -22 21 -28 -2 -4 -16 1 -18 37 -17 l41 1 1 50
c1 28 -3 56 -9 63 -13 17 -42 15 -57 -3z"/>

<path d="M1536 2348 c-7 -37 -2 -45 19 -28 13 11 19 11 31 -2 8 -8 12 -22 8
-31 -7 -20 -40 -23 -47 -4 -2 6 -8 9 -12 5 -11 -11 14 -38 36 -38 10 0 26 11
34 24 21 32 5 66 -31 66 -35 0 -26 23 12 31 28 6 28 7 -7 8 -33 1 -37 -2 -43
-31z"/>
<path d="M1487 2082 c-21 -23 -22 -39 -2 -22 13 11 15 6 15 -39 0 -28 5 -51
10 -51 6 0 10 28 10 65 0 68 -6 77 -33 47z"/>

<path d="M1578 2059 c-35 -50 -35 -59 2 -59 22 0 28 -4 24 -15 -4 -8 -1 -15 5
-15 6 0 11 6 11 14 0 8 6 17 13 20 10 5 10 7 0 12 -7 3 -13 23 -13 45 0 21 -3
39 -7 39 -5 -1 -20 -19 -35 -41z m32 -14 c0 -18 -5 -25 -20 -25 -20 0 -20 1
-4 25 9 14 18 25 20 25 2 0 4 -11 4 -25z"/>

<path d="M1841 1819 c-13 -11 -21 -22 -18 -26 4 -3 14 0 23 8 16 13 17 10 12
-39 -3 -28 -1 -52 3 -52 5 0 9 29 9 65 0 36 -1 65 -2 65 -2 -1 -14 -10 -27
-21z"/>

<path d="M1927 1822 c-19 -21 -22 -64 -7 -93 16 -28 58 -25 72 6 14 32 -5 59
-39 52 -25 -5 -31 11 -11 31 9 9 16 8 31 -6 18 -16 19 -16 16 3 -5 27 -41 31
-62 7z m48 -72 c0 -29 -32 -41 -41 -16 -9 24 4 48 23 44 12 -2 18 -12 18 -28z"/>

<path d="M1373 1771 c-26 -22 -30 -36 -8 -27 12 4 15 -4 15 -39 0 -24 5 -47
10 -50 6 -4 10 20 10 64 0 39 -1 71 -2 71 -2 -1 -13 -9 -25 -19z"/>

<path d="M1457 1783 c-5 -8 -10 -51 -8 -67 1 -5 8 -3 16 4 12 10 18 10 30 0 8
-7 15 -19 15 -27 0 -19 -29 -28 -43 -14 -14 14 -27 14 -27 1 0 -14 37 -31 55
-24 44 17 37 84 -10 84 -18 0 -23 4 -19 15 4 8 17 15 30 15 13 0 24 5 24 10 0
12 -57 14 -63 3z"/>

<path d="M1231 1419 c-13 -11 -21 -22 -18 -26 4 -3 13 0 22 7 13 11 15 6 15
-39 0 -28 3 -51 8 -51 4 0 7 29 7 65 0 36 -2 65 -5 65 -3 -1 -16 -10 -29 -21z"/>

<path d="M1314 1426 c-3 -9 -3 -23 0 -31 3 -9 0 -24 -6 -35 -9 -14 -9 -22 1
-34 29 -34 93 -7 75 31 -4 10 -8 32 -8 48 -1 25 -6 31 -29 33 -18 2 -29 -2
-33 -12z m47 -29 c-5 -5 -17 -7 -26 -3 -14 5 -15 9 -5 21 10 12 16 13 27 4 9
-8 10 -16 4 -22z m7 -50 c4 -20 -25 -34 -40 -19 -15 15 -1 44 19 40 10 -2 19
-11 21 -21z"/>

<path d="M1680 1082 c-24 -24 -25 -24 -2 -18 21 7 22 5 22 -44 0 -32 4 -49 10
-45 11 7 12 124 1 129 -3 1 -17 -9 -31 -22z"/>

<path d="M1754 1092 c3 -5 18 -7 35 -4 l29 4 -24 -48 c-26 -51 -30 -74 -14
-74 6 0 10 6 10 13 0 8 11 36 25 63 14 27 25 50 25 52 0 1 -21 2 -46 2 -25 0
-43 -4 -40 -8z"/>

<path d="M1318 689 c-10 -5 -18 -18 -18 -27 1 -16 2 -16 14 1 7 9 21 17 30 17
26 0 19 -34 -14 -65 -42 -40 -39 -55 10 -55 22 0 40 5 40 10 0 6 -15 10 -32
10 l-33 0 33 31 c36 34 41 63 13 79 -23 12 -22 12 -43 -1z"/>

<path d="M1418 689 c-10 -5 -18 -18 -18 -27 1 -16 2 -16 14 1 7 9 21 17 30 17
26 0 19 -34 -14 -65 -42 -40 -39 -55 10 -55 22 0 40 5 40 10 0 6 -14 10 -32
10 l-32 0 32 33 c37 38 41 62 13 77 -23 12 -22 12 -43 -1z"/>

<path d="M985 514 c-19 -20 -12 -32 10 -14 16 13 45 7 45 -9 0 -6 -16 -25 -35
-42 -19 -18 -35 -36 -35 -41 0 -4 21 -7 48 -6 43 1 44 2 9 5 l-37 4 35 33 c39
37 42 48 19 70 -20 20 -38 20 -59 0z"/>

<path d="M1100 505 c-23 -25 -15 -36 9 -12 10 10 12 2 10 -40 -2 -29 0 -56 4
-59 4 -4 7 25 7 64 0 40 -1 72 -3 72 -2 0 -14 -11 -27 -25z"/>

<path d="M400 5040 c0 -5 7 -10 15 -10 8 0 15 5 15 10 0 6 -7 10 -15 10 -8 0
-15 -4 -15 -10z"/>

<path d="M2181 4914 c0 -11 3 -14 6 -6 3 7 2 16 -1 19 -3 4 -6 -2 -5 -13z"/>
<path d="M2143 4875 c-10 -10 -9 -16 2 -25 9 -8 15 -8 15 -2 0 6 3 17 6 26 7
20 -7 20 -23 1z"/>

<path d="M1870 4600 c0 -5 5 -10 10 -10 6 0 10 5 10 10 0 6 -4 10 -10 10 -5 0
-10 -4 -10 -10z"/>

<path d="M1860 4463 c0 -12 5 -25 11 -28 17 -11 18 -2 4 25 -14 24 -14 24 -15
3z"/>

<path d="M1900 4412 c0 -4 6 -14 12 -20 10 -10 10 -15 -2 -22 -16 -10 -33 -3
-25 10 3 5 2 11 -2 13 -5 3 -17 -12 -27 -33 -12 -25 -23 -37 -32 -33 -8 3 -14
0 -14 -6 0 -6 5 -11 10 -11 6 0 10 -8 10 -17 0 -10 5 -25 10 -33 7 -10 8 -4 4
20 -4 26 -1 40 10 49 9 7 16 20 16 28 0 9 5 11 13 6 16 -10 37 -13 38 -5 7 34
3 62 -8 62 -7 0 -13 -4 -13 -8z"/>

<path d="M1794 4257 c-8 -21 2 -35 16 -21 5 5 6 15 0 24 -8 12 -10 12 -16 -3z"/>

<path d="M2018 4043 c17 -2 32 -5 32 -7 0 -1 -9 -19 -20 -41 -22 -42 -26 -75
-10 -75 6 0 10 10 10 23 0 12 11 41 25 65 l24 42 -47 -2 c-37 -1 -40 -2 -14
-5z"/>

<path d="M2632 3420 c-25 -40 -57 -129 -49 -137 8 -7 79 145 74 160 -2 6 -14
-4 -25 -23z m-11 -57 c-12 -20 -14 -14 -5 12 4 9 9 14 11 11 3 -2 0 -13 -6
-23z"/>

<path d="M2213 2791 c-26 -22 -30 -36 -8 -27 12 4 15 -4 15 -44 0 -28 5 -50
10 -50 6 0 10 30 10 70 0 39 -1 70 -2 70 -2 -1 -13 -9 -25 -19z"/>

<path d="M2298 2799 c-19 -11 -25 -39 -8 -39 6 0 10 7 10 15 0 17 35 20 46 4
3 -6 -10 -27 -30 -48 -45 -46 -45 -58 -2 -53 18 2 37 -1 40 -7 4 -6 -7 -42
-24 -80 -16 -38 -30 -77 -30 -86 0 -9 -13 -50 -30 -91 -16 -40 -32 -96 -36
-124 -5 -36 -11 -50 -22 -50 -13 0 -13 -3 -4 -12 16 -16 32 5 32 40 0 27 72
253 106 333 29 67 24 89 -19 89 l-31 0 32 29 c36 34 41 65 13 81 -23 12 -22
12 -43 -1z"/>

<path d="M420 1810 c0 -5 5 -10 11 -10 5 0 7 5 4 10 -3 6 -8 10 -11 10 -2 0
-4 -4 -4 -10z"/>

<path d="M1035 1681 c-3 -5 -1 -12 5 -16 5 -3 10 1 10 9 0 18 -6 21 -15 7z"/>

<path d="M423 1517 c13 -11 15 -17 6 -23 -7 -4 -18 1 -27 12 -14 18 -14 18 -8
1 3 -10 6 -21 6 -23 0 -10 29 -3 39 10 10 12 8 17 -11 26 -21 10 -21 10 -5 -3z"/>

<path d="M446 1411 c-4 -5 -2 -12 3 -15 5 -4 12 -2 15 3 4 5 2 12 -3 15 -5 4
-12 2 -15 -3z"/>

<path d="M566 1134 c-9 -8 -13 -20 -10 -25 3 -6 11 -3 19 7 12 18 45 14 45 -5
0 -6 -16 -26 -35 -45 -19 -20 -35 -39 -35 -43 0 -5 21 -6 48 -3 40 4 42 5 15
8 -18 2 -33 5 -33 7 0 2 14 17 30 33 34 35 36 44 14 66 -20 20 -38 20 -58 0z"/>

<path d="M666 1128 c-9 -12 -16 -34 -16 -48 0 -30 25 -70 45 -70 20 0 45 40
45 70 0 30 -25 70 -45 70 -8 0 -21 -10 -29 -22z m49 -48 c0 -38 -3 -45 -20
-45 -15 0 -21 8 -23 33 -4 45 4 64 25 60 14 -3 18 -13 18 -48z"/>

<path d="M441 720 c0 -14 4 -32 9 -40 8 -12 10 -12 9 5 0 11 -4 29 -9 40 -8
18 -9 18 -9 -5z"/>
</g>
</svg>
